<svg width="298" height="218" viewBox="0 0 298 218" fill="none" xmlns="http://www.w3.org/2000/svg">
<g opacity="0.8">
<path d="M41.0294 106.864C50.0866 106.864 58.7729 103.041 65.1773 96.2366C71.5817 89.4319 75.1797 80.2028 75.1797 70.5795C75.1797 60.9563 71.5817 51.7271 65.1773 44.9224C58.7729 38.1178 50.0866 34.2949 41.0294 34.2949L41.0294 70.5795L41.0294 106.864Z" fill="#11002C"/>
<path d="M184.022 106.864C193.079 106.864 201.765 103.041 208.169 96.2366C214.574 89.4319 218.172 80.2028 218.172 70.5795C218.172 60.9563 214.574 51.7271 208.17 44.9224C201.765 38.1178 193.079 34.2949 184.022 34.2949L184.022 70.5795V106.864Z" fill="#AB7BFF"/>
<path d="M257.661 34.2935C257.661 39.0585 256.751 43.7768 254.981 48.179C253.211 52.5813 250.617 56.5813 247.347 59.9506C244.076 63.3199 240.194 65.9927 235.921 67.8161C231.648 69.6396 227.069 70.5781 222.444 70.5781V34.2935H257.661Z" fill="#4F4069"/>
<path d="M222.293 70.5931C226.908 70.591 231.479 71.5273 235.743 73.3485C240.008 75.1697 243.883 77.8401 247.148 81.2072C250.413 84.5744 253.003 88.5723 254.771 92.9728C256.539 97.3733 257.45 102.09 257.453 106.854L222.309 106.87L222.293 70.5931Z" fill="#11002C"/>
<path d="M258.727 34.2969H284.593C291.526 34.2969 297.146 39.9167 297.146 46.8491V70.5815H271.279C264.346 70.5815 258.727 64.9617 258.727 58.0292V34.2969Z" fill="#C6A7FC"/>
<path d="M38.4219 34.2969H12.5551C5.62268 34.2969 0.00284958 39.9167 0.00284958 46.8491V70.5815H25.8696C32.802 70.5815 38.4219 64.9617 38.4219 58.0292V34.2969Z" fill="#AB7BFF"/>
<path d="M258.727 106.883V83.1505C258.727 76.218 264.346 70.5982 271.279 70.5982H297.146V94.3306C297.146 101.263 291.526 106.883 284.593 106.883H258.727Z" fill="#251345"/>
<path d="M38.4219 106.883V83.1505C38.4219 76.218 32.802 70.5982 25.8696 70.5982H0.00284958V94.3306C0.00284958 101.263 5.62269 106.883 12.5551 106.883H38.4219Z" fill="#251345"/>
<path d="M184.022 106.864C174.964 106.864 166.278 103.041 159.874 96.2366C153.469 89.4319 149.871 80.2028 149.871 70.5795C149.871 60.9563 153.469 51.7271 159.874 44.9224C166.278 38.1178 174.964 34.2949 184.022 34.2949L184.022 70.5795V106.864Z" fill="#11002C"/>
<path d="M77.3107 106.864C81.7954 106.864 86.2361 105.926 90.3794 104.102C94.5227 102.279 98.2874 99.606 101.459 96.2366C104.63 92.8673 107.145 88.8673 108.861 84.4651C110.578 80.0628 111.461 75.3445 111.461 70.5795H77.3107L77.3107 106.864Z" fill="#AB7BFF"/>
<path d="M111.441 70.6632C106.974 70.6777 102.549 69.7538 98.4168 67.9441C94.2846 66.1345 90.5268 63.4746 87.3578 60.1163C84.1888 56.7579 81.6707 52.767 79.9472 48.3713C78.2238 43.9755 77.3288 39.2612 77.3133 34.4973L111.323 34.3867L111.441 70.6632Z" fill="#11002C"/>
<path d="M111.462 70.5506C111.462 66.066 112.401 61.6252 114.224 57.4819C116.047 53.3386 118.72 49.5739 122.09 46.4028C125.459 43.2316 129.459 40.7161 133.861 38.9999C138.263 37.2837 142.982 36.4004 147.747 36.4004V70.5506H111.462Z" fill="#AB7BFF"/>
<path d="M111.451 70.5929C115.936 70.5929 120.377 71.5314 124.52 73.3549C128.663 75.1784 132.428 77.8511 135.599 81.2204C138.77 84.5897 141.286 88.5897 143.002 92.992C144.718 97.3942 145.602 102.113 145.602 106.877H111.451V70.5929Z" fill="#11002C"/>
</g>
<g opacity="0.8">
<path d="M41.0294 181.425C50.0866 181.425 58.7729 177.602 65.1773 170.797C71.5817 163.992 75.1797 154.763 75.1797 145.14C75.1797 135.517 71.5817 126.288 65.1773 119.483C58.7729 112.678 50.0867 108.855 41.0294 108.855L41.0294 145.14L41.0294 181.425Z" fill="#11002C"/>
<path d="M184.029 181.425C193.087 181.425 201.773 177.602 208.177 170.797C214.582 163.992 218.18 154.763 218.18 145.14C218.18 135.517 214.582 126.288 208.177 119.483C201.773 112.678 193.087 108.855 184.029 108.855L184.029 145.14V181.425Z" fill="#BA93FD"/>
<path d="M257.661 108.85C257.661 113.615 256.751 118.333 254.981 122.736C253.211 127.138 250.617 131.138 247.346 134.507C244.076 137.877 240.194 140.549 235.921 142.373C231.648 144.196 227.069 145.135 222.444 145.135V108.85H257.661Z" fill="#4F4069"/>
<path d="M222.301 145.142C226.916 145.14 231.486 146.076 235.751 147.897C240.015 149.719 243.891 152.389 247.156 155.756C250.421 159.123 253.011 163.121 254.779 167.522C256.547 171.922 257.458 176.639 257.46 181.403L222.317 181.419L222.301 145.142Z" fill="#11002C"/>
<path d="M258.734 108.857H284.601C291.534 108.857 297.153 114.477 297.153 121.41V145.142H271.287C264.354 145.142 258.734 139.522 258.734 132.59V108.857Z" fill="#C6A7FC"/>
<path d="M38.4219 108.857H12.5551C5.62268 108.857 0.00284576 114.477 0.00284576 121.41V145.142H25.8696C32.802 145.142 38.4219 139.522 38.4219 132.59V108.857Z" fill="#BA93FD"/>
<path d="M258.734 181.439V157.707C258.734 150.775 264.354 145.155 271.287 145.155H297.153V168.887C297.153 175.82 291.534 181.439 284.601 181.439H258.734Z" fill="#4F4069"/>
<path d="M38.4219 181.439V157.707C38.4219 150.775 32.802 145.155 25.8696 145.155H0.00284576V168.887C0.00284576 175.82 5.62268 181.439 12.5551 181.439H38.4219Z" fill="#4F4069"/>
<path d="M184.029 181.425C174.972 181.425 166.286 177.602 159.882 170.797C153.477 163.992 149.879 154.763 149.879 145.14C149.879 135.517 153.477 126.288 159.882 119.483C166.286 112.678 174.972 108.855 184.029 108.855L184.029 145.14V181.425Z" fill="#11002C"/>
<path d="M77.3107 181.425C81.7954 181.425 86.2361 180.486 90.3794 178.663C94.5227 176.839 98.2874 174.167 101.459 170.797C104.63 167.428 107.145 163.428 108.861 159.026C110.578 154.623 111.461 149.905 111.461 145.14H77.3107L77.3107 181.425Z" fill="#BA93FD"/>
<path d="M111.441 145.22C106.974 145.234 102.549 144.31 98.4168 142.501C94.2846 140.691 90.5268 138.031 87.3578 134.673C84.1888 131.315 81.6707 127.324 79.9472 122.928C78.2238 118.532 77.3288 113.818 77.3133 109.054L111.323 108.943L111.441 145.22Z" fill="#11002C"/>
<path d="M111.462 145.111C111.462 140.627 112.401 136.186 114.224 132.042C116.048 127.899 118.72 124.134 122.09 120.963C125.459 117.792 129.459 115.277 133.861 113.56C138.263 111.844 142.982 110.961 147.747 110.961V145.111H111.462Z" fill="#BA93FD"/>
<path d="M111.451 145.142C115.936 145.142 120.377 146.08 124.52 147.904C128.663 149.727 132.428 152.4 135.599 155.769C138.77 159.139 141.286 163.139 143.002 167.541C144.718 171.943 145.602 176.661 145.602 181.426H111.451V145.142Z" fill="#11002C"/>
</g>
</svg>
